<svg width="492" height="293" fill="none" xmlns="http://www.w3.org/2000/svg">
  <path
    d="m81.74 277.645-.734-.441c.206-.342 20.657-34.426 23.84-42.918l.802.301c-3.212 8.565-23.065 41.654-23.908 43.058Z"
    fill="#8B9D36" />
  <path
    d="M98.316 216.414a36.78 36.78 0 0 1 1.977 6.626 62.134 62.134 0 0 1 1.01 6.718 60.8 60.8 0 0 1 .278 6.788 36.213 36.213 0 0 1-.698 6.88 36.345 36.345 0 0 1-1.98-6.626 60.837 60.837 0 0 1-1.007-6.718 61.953 61.953 0 0 1-.273-6.788c.014-2.31.246-4.614.693-6.88ZM90.769 226.734a35.08 35.08 0 0 1 2.565 6.248 58.874 58.874 0 0 1 1.611 6.43c.422 2.171.719 4.365.89 6.57.195 2.248.17 4.51-.074 6.754a34.67 34.67 0 0 1-2.57-6.247 57.958 57.958 0 0 1-1.606-6.431 59.029 59.029 0 0 1-.885-6.57 35.11 35.11 0 0 1 .069-6.754ZM86.61 238.75c.928 1.854 1.66 3.8 2.184 5.807a49.424 49.424 0 0 1 1.221 5.944c.29 2.004.456 4.024.495 6.048.06 2.073-.1 4.147-.477 6.187a29.38 29.38 0 0 1-2.188-5.807 48.528 48.528 0 0 1-1.217-5.945 49.432 49.432 0 0 1-.49-6.048c-.059-2.073.1-4.147.472-6.186ZM81.373 250.743a22.76 22.76 0 0 1 2.214 4.942c.54 1.67.96 3.377 1.257 5.107.304 1.729.482 3.477.533 5.232a22.515 22.515 0 0 1-.433 5.399 22.51 22.51 0 0 1-2.219-4.941 36.469 36.469 0 0 1-1.253-5.108c-.299-1.73-.475-3.478-.528-5.233-.072-1.81.072-3.622.43-5.398ZM76.753 258.239a20.503 20.503 0 0 1 2.337 4.339c.59 1.466 1.08 2.97 1.47 4.501.385 1.52.681 3.062.887 4.616.096.784.184 1.563.243 2.357.03.809.116 1.616.258 2.413a4.727 4.727 0 0 1-.568-.359l-.462-.462a8.504 8.504 0 0 1-.806-1.009 16.217 16.217 0 0 1-1.24-2.159 24.052 24.052 0 0 1-1.629-4.553 26.966 26.966 0 0 1-.766-4.741 17.845 17.845 0 0 1 .276-4.943ZM102.804 239.735a29.523 29.523 0 0 1 5.206-4.515 48.2 48.2 0 0 1 5.754-3.431 47.411 47.411 0 0 1 6.169-2.612c2.173-.77 4.43-1.28 6.723-1.518a29.152 29.152 0 0 1-5.203 4.52 47.519 47.519 0 0 1-5.757 3.426 48.303 48.303 0 0 1-6.172 2.607 29.447 29.447 0 0 1-6.72 1.523ZM97.69 249.288a36.267 36.267 0 0 1 6.421-4.204 60.39 60.39 0 0 1 6.848-3.068 59.497 59.497 0 0 1 7.171-2.207 35.863 35.863 0 0 1 7.602-1.059 35.966 35.966 0 0 1-6.418 4.209 59.431 59.431 0 0 1-6.85 3.062 60.527 60.527 0 0 1-7.173 2.201c-2.489.623-5.037.98-7.6 1.066ZM91.67 259.906a30.965 30.965 0 0 1 5.789-4.059 50.874 50.874 0 0 1 6.23-2.928 50.03 50.03 0 0 1 6.563-2.071 30.587 30.587 0 0 1 7.009-.93 30.655 30.655 0 0 1-5.786 4.064 50.06 50.06 0 0 1-6.232 2.922 50.941 50.941 0 0 1-6.565 2.067 30.962 30.962 0 0 1-7.007.935ZM86.914 268.078a23.223 23.223 0 0 1 5.083-3.348 36.951 36.951 0 0 1 5.446-2.19 36.394 36.394 0 0 1 5.722-1.314 22.978 22.978 0 0 1 6.087-.143 22.952 22.952 0 0 1-5.082 3.354 36.49 36.49 0 0 1-5.448 2.185 37.013 37.013 0 0 1-5.723 1.307c-2.013.317-4.06.367-6.085.149Z"
    fill="#8B9D36" />
  <path
    d="M83.158 275.412a30.522 30.522 0 0 1 5.588-4.247 50.268 50.268 0 0 1 6.07-3.132 49.236 49.236 0 0 1 6.435-2.288 30.165 30.165 0 0 1 6.922-1.164 30.188 30.188 0 0 1-5.585 4.251 49.096 49.096 0 0 1-6.073 3.127 49.928 49.928 0 0 1-6.437 2.283 30.53 30.53 0 0 1-6.92 1.17ZM104.465 235.669a21.505 21.505 0 0 1 .167-6.863 32.28 32.28 0 0 1 1.749-6.244 31.854 31.854 0 0 1 2.946-5.775 21.296 21.296 0 0 1 4.545-5.149 21.272 21.272 0 0 1-.159 6.867 31.82 31.82 0 0 1-1.756 6.24 32.324 32.324 0 0 1-2.955 5.772 21.476 21.476 0 0 1-4.537 5.152Z"
    fill="#8B9D36" />
  <path
    d="m78.598 279.044-.856-.013c.038-2.339 1.053-57.471 12.08-74.933l.724.458c-10.9 17.259-11.939 73.918-11.948 74.488Z"
    fill="#50661A" />
  <path
    d="M86.641 211.973c.34-2.557.425-5.143.257-7.717a69.406 69.406 0 0 0-.834-7.487 77.105 77.105 0 0 0-1.583-7.337c-.638-2.44-1.444-4.787-2.306-7.288a10.713 10.713 0 0 0-.552 1.919 17.136 17.136 0 0 0-.302 1.95 33.044 33.044 0 0 0-.173 3.87 49.69 49.69 0 0 0 .696 7.586c.415 2.499 1.001 4.967 1.755 7.385a34.72 34.72 0 0 0 3.042 7.119ZM100.196 177.061a27.73 27.73 0 0 0-4.828 6.203 43.615 43.615 0 0 0-3.235 6.798 42.875 42.875 0 0 0-2.03 7.25 27.43 27.43 0 0 0-.424 7.851 27.438 27.438 0 0 0 4.835-6.2 42.826 42.826 0 0 0 3.227-6.801 43.603 43.603 0 0 0 2.023-7.253c.516-2.582.661-5.225.432-7.848ZM109.283 191.112a63.84 63.84 0 0 0-6.357 5.858c-1.964 2.037-3.84 4.119-5.674 6.213l-5.449 6.254c-.914 1.025-1.838 2.034-2.814 2.99a12.847 12.847 0 0 1-3.325 2.512 5.775 5.775 0 0 0 2.275-.057 10.725 10.725 0 0 0 2.193-.69 21.207 21.207 0 0 0 3.905-2.24 38.305 38.305 0 0 0 6.434-5.952 50.903 50.903 0 0 0 5.112-6.984 36.393 36.393 0 0 0 3.7-7.904ZM109.283 205.163a52.657 52.657 0 0 0-7.902 4.861 89.617 89.617 0 0 0-7.09 5.763 88.058 88.058 0 0 0-6.475 6.446 52.074 52.074 0 0 0-5.655 7.356 51.936 51.936 0 0 0 7.906-4.856 87.837 87.837 0 0 0 7.086-5.767 89.797 89.797 0 0 0 6.471-6.45 52.638 52.638 0 0 0 5.659-7.353ZM108.359 216.188a52.102 52.102 0 0 0-7.984 4.617 88.592 88.592 0 0 0-7.195 5.541 86.935 86.935 0 0 0-6.599 6.239 51.47 51.47 0 0 0-5.802 7.171 51.388 51.388 0 0 0 7.988-4.613 86.61 86.61 0 0 0 7.191-5.545 88.645 88.645 0 0 0 6.595-6.243 52.027 52.027 0 0 0 5.806-7.167ZM107.743 227.972a48.382 48.382 0 0 0-7.997 3.88 81.885 81.885 0 0 0-7.271 4.853 80.432 80.432 0 0 0-6.721 5.589 47.745 47.745 0 0 0-5.988 6.571 47.884 47.884 0 0 0 8-3.875 80.551 80.551 0 0 0 7.268-4.858 81.924 81.924 0 0 0 6.717-5.594c2.195-2 4.2-4.198 5.992-6.566ZM108.359 236.521a53.802 53.802 0 0 0-8.368 4.249 91.623 91.623 0 0 0-7.633 5.216 89.932 89.932 0 0 0-7.078 5.948 53.22 53.22 0 0 0-6.336 6.924 53.213 53.213 0 0 0 8.37-4.244 90.13 90.13 0 0 0 7.63-5.221 91.706 91.706 0 0 0 7.075-5.952 53.908 53.908 0 0 0 6.34-6.92ZM110.515 244.532a70.18 70.18 0 0 0-8.746 4.854 134.51 134.51 0 0 0-8.083 5.619 167.39 167.39 0 0 0-7.69 6.084c-2.534 2.083-4.929 4.252-7.552 6.401a21.113 21.113 0 0 0 4.898-1.43 47.861 47.861 0 0 0 4.547-2.189 74.716 74.716 0 0 0 8.357-5.439 86.107 86.107 0 0 0 7.592-6.408 54.596 54.596 0 0 0 6.677-7.492ZM113.134 252.85a72.135 72.135 0 0 0-9.498 4.514 133.12 133.12 0 0 0-8.852 5.414 148.307 148.307 0 0 0-8.42 6.023 198.534 198.534 0 0 0-4.066 3.224 36.083 36.083 0 0 1-4.128 3.161 7.953 7.953 0 0 0 2.669-.458c.86-.255 1.694-.565 2.52-.887a57.245 57.245 0 0 0 4.798-2.194 90.928 90.928 0 0 0 8.996-5.308 102.78 102.78 0 0 0 8.374-6.206 63.62 63.62 0 0 0 7.607-7.283ZM83.987 221.76a42.573 42.573 0 0 0-1.228-8.238 71.58 71.58 0 0 0-2.367-7.821 70.427 70.427 0 0 0-3.231-7.505 42.134 42.134 0 0 0-4.381-7.084c.134 2.78.543 5.54 1.221 8.24.64 2.65 1.432 5.26 2.374 7.818a71.666 71.666 0 0 0 3.236 7.504 42.613 42.613 0 0 0 4.376 7.086ZM82.16 231.379a43.504 43.504 0 0 0-2.364-8.084 73.204 73.204 0 0 0-3.438-7.518 72.133 72.133 0 0 0-4.25-7.089 43.04 43.04 0 0 0-5.336-6.518 43.048 43.048 0 0 0 2.359 8.086 72.12 72.12 0 0 0 3.443 7.515 73.24 73.24 0 0 0 4.256 7.087 43.58 43.58 0 0 0 5.33 6.521ZM80.779 240.68a47.657 47.657 0 0 0-3.46-8.115 80.764 80.764 0 0 0-4.466-7.436 79.455 79.455 0 0 0-5.228-6.921 47.154 47.154 0 0 0-6.243-6.235 47.102 47.102 0 0 0 3.456 8.119 79.28 79.28 0 0 0 4.47 7.433 80.588 80.588 0 0 0 5.233 6.917 47.576 47.576 0 0 0 6.238 6.238ZM79.766 250.943a61.493 61.493 0 0 0-4.954-8.71 102.6 102.6 0 0 0-5.894-7.942 105.076 105.076 0 0 0-6.605-7.36 60.477 60.477 0 0 0-7.554-6.584 60.493 60.493 0 0 0 4.95 8.714 101.275 101.275 0 0 0 5.898 7.938c2.086 2.548 4.289 5 6.61 7.356a61.34 61.34 0 0 0 7.55 6.588ZM78.944 261.585a62.065 62.065 0 0 0-5.866-8.188 103.334 103.334 0 0 0-6.722-7.325 105.903 105.903 0 0 0-7.37-6.674 61.129 61.129 0 0 0-8.232-5.804 61.098 61.098 0 0 0 5.862 8.192 102.276 102.276 0 0 0 6.726 7.321 108.949 108.949 0 0 0 7.374 6.67 62.047 62.047 0 0 0 8.228 5.808ZM78.445 268.408a54.037 54.037 0 0 0-6.374-6.921 92.255 92.255 0 0 0-7.106-5.953 90.416 90.416 0 0 0-7.66-5.22 53.438 53.438 0 0 0-8.4-4.242 53.498 53.498 0 0 0 6.371 6.926 90.51 90.51 0 0 0 7.11 5.948 91.949 91.949 0 0 0 7.663 5.215 54.07 54.07 0 0 0 8.395 4.247ZM78.17 274.108a57.22 57.22 0 0 0-7.446-6.192 95.164 95.164 0 0 0-8.05-5.138 97.91 97.91 0 0 0-8.505-4.341 56.483 56.483 0 0 0-9.114-3.276 56.705 56.705 0 0 0 7.444 6.197 94.382 94.382 0 0 0 8.052 5.133 100.513 100.513 0 0 0 8.508 4.335 57.317 57.317 0 0 0 9.112 3.282ZM78.383 277.805a61.834 61.834 0 0 0-8.712-5.019 105.606 105.606 0 0 0-9.134-3.88 105.893 105.893 0 0 0-9.453-3.019 60.972 60.972 0 0 0-9.88-1.869 60.925 60.925 0 0 0 8.71 5.024 101.831 101.831 0 0 0 9.136 3.875 105.908 105.908 0 0 0 9.456 3.013 61.863 61.863 0 0 0 9.877 1.875Z"
    fill="#50661A" />
  <path
    d="M76.886 277.51c-.843-1.404-20.696-34.494-23.907-43.058l.801-.301c3.183 8.492 23.633 42.575 23.84 42.918l-.734.441Z"
    fill="#5E7C24" />
  <path
    d="M60.267 216.414a36.747 36.747 0 0 0-1.977 6.626 61.937 61.937 0 0 0-1.01 6.718 60.728 60.728 0 0 0-.279 6.788 36.27 36.27 0 0 0 .698 6.88 36.283 36.283 0 0 0 1.982-6.626c.46-2.219.795-4.462 1.005-6.718.215-2.256.307-4.522.274-6.788a36.735 36.735 0 0 0-.693-6.88ZM67.814 226.734a35.073 35.073 0 0 0-2.565 6.248 58.851 58.851 0 0 0-1.611 6.43 58.03 58.03 0 0 0-.89 6.57 34.69 34.69 0 0 0 .074 6.754 34.67 34.67 0 0 0 2.57-6.247 57.958 57.958 0 0 0 1.606-6.431c.418-2.172.714-4.366.885-6.57.194-2.249.171-4.51-.069-6.754ZM71.973 238.75a29.74 29.74 0 0 0-2.184 5.807 49.385 49.385 0 0 0-1.221 5.944 48.64 48.64 0 0 0-.495 6.048c-.06 2.073.1 4.147.477 6.187a29.38 29.38 0 0 0 2.188-5.807c.53-1.954.936-3.94 1.217-5.945.287-2.004.45-4.024.49-6.048.059-2.073-.1-4.147-.472-6.186ZM77.21 250.743a22.76 22.76 0 0 0-2.214 4.942c-.54 1.67-.96 3.377-1.257 5.107a36.439 36.439 0 0 0-.533 5.232 22.52 22.52 0 0 0 .433 5.399 22.51 22.51 0 0 0 2.219-4.941c.54-1.67.958-3.377 1.252-5.108.3-1.73.476-3.478.529-5.233a22.783 22.783 0 0 0-.43-5.398ZM81.83 258.239a20.508 20.508 0 0 0-2.337 4.339 35.398 35.398 0 0 0-1.47 4.501 40.413 40.413 0 0 0-.887 4.616 48.71 48.71 0 0 0-.242 2.357c-.03.809-.117 1.616-.259 2.413.198-.106.388-.226.569-.359l.46-.462c.295-.315.564-.653.808-1.009.468-.687.883-1.409 1.24-2.159a24.06 24.06 0 0 0 1.628-4.553c.396-1.555.652-3.141.766-4.741a17.845 17.845 0 0 0-.276-4.943ZM55.779 239.735a29.527 29.527 0 0 0-5.206-4.515 48.194 48.194 0 0 0-5.755-3.431 47.4 47.4 0 0 0-6.17-2.612 29.132 29.132 0 0 0-6.722-1.518 29.166 29.166 0 0 0 5.203 4.52 47.482 47.482 0 0 0 5.757 3.426 48.249 48.249 0 0 0 6.172 2.607 29.447 29.447 0 0 0 6.72 1.523ZM60.893 249.288a36.237 36.237 0 0 0-6.421-4.204 60.567 60.567 0 0 0-6.848-3.068 59.437 59.437 0 0 0-7.171-2.207 35.853 35.853 0 0 0-7.602-1.059 35.941 35.941 0 0 0 6.419 4.209 59.349 59.349 0 0 0 6.85 3.062 60.458 60.458 0 0 0 7.173 2.201c2.488.623 5.036.98 7.6 1.066ZM66.912 259.906a30.965 30.965 0 0 0-5.788-4.059 50.923 50.923 0 0 0-6.23-2.928 50.07 50.07 0 0 0-6.563-2.071 30.58 30.58 0 0 0-7.009-.93 30.657 30.657 0 0 0 5.786 4.064 50.036 50.036 0 0 0 6.232 2.922 50.946 50.946 0 0 0 6.566 2.067 30.96 30.96 0 0 0 7.006.935ZM71.67 268.078a23.22 23.22 0 0 0-5.084-3.348 36.954 36.954 0 0 0-5.447-2.19 36.407 36.407 0 0 0-5.72-1.314 22.98 22.98 0 0 0-6.088-.143 22.935 22.935 0 0 0 5.082 3.354 36.436 36.436 0 0 0 5.448 2.185 37.013 37.013 0 0 0 5.723 1.307c2.013.317 4.059.367 6.085.149Z"
    fill="#5E7C24" />
  <path
    d="M75.425 275.412a30.522 30.522 0 0 0-5.588-4.247 50.276 50.276 0 0 0-6.07-3.132 49.22 49.22 0 0 0-6.435-2.288 30.15 30.15 0 0 0-6.922-1.164 30.2 30.2 0 0 0 5.585 4.251 49.125 49.125 0 0 0 6.073 3.127 49.928 49.928 0 0 0 6.437 2.283 30.53 30.53 0 0 0 6.92 1.17ZM54.117 235.669a21.493 21.493 0 0 0-.166-6.863 32.328 32.328 0 0 0-1.749-6.244 31.838 31.838 0 0 0-2.947-5.775 21.283 21.283 0 0 0-4.544-5.149 21.275 21.275 0 0 0 .158 6.867 31.84 31.84 0 0 0 1.757 6.24 32.343 32.343 0 0 0 2.954 5.772 21.5 21.5 0 0 0 4.537 5.152Z"
    fill="#5E7C24" />
  <path
    d="M187.471 76.344c-8.758.522-17.518.932-26.28 1.232-8.762.324-17.526.546-26.291.748-8.765.17-17.53.317-26.298.364-8.767.07-17.537.029-26.309-.126 8.758-.523 17.518-.935 26.28-1.234 8.762-.323 17.526-.545 26.291-.745 8.765-.168 17.531-.316 26.298-.361 8.768-.07 17.537-.03 26.309.123ZM116.936 102.694c-8.758.521-17.518.932-26.28 1.232-8.763.323-17.527.545-26.291.747-8.765.17-17.531.318-26.299.364a1025.6 1025.6 0 0 1-26.309-.125 1030.17 1030.17 0 0 1 26.28-1.235c8.763-.323 17.526-.545 26.291-.745 8.765-.167 17.53-.315 26.299-.361 8.767-.07 17.537-.029 26.309.123ZM147.083 132.183c-8.758.521-17.518.932-26.28 1.231-8.762.324-17.526.546-26.29.748-8.766.17-17.532.317-26.3.364-8.767.071-17.536.029-26.308-.126a1030.18 1030.18 0 0 1 26.28-1.234c8.762-.323 17.526-.545 26.29-.745 8.766-.168 17.531-.316 26.299-.361 8.767-.07 17.537-.03 26.309.123Z"
    fill="#EBC136" />
  <path
    d="M464.732 279.909H34.46a.87.87 0 0 1-.871-.872.872.872 0 0 1 .871-.871h430.272a.874.874 0 0 1 .871.871.872.872 0 0 1-.871.872Z"
    fill="#8C8686" />
  <path d="M319.484 125.829c8.409 0 8.423-13.071 0-13.071-8.409 0-8.423 13.071 0 13.071Z" fill="#6F56A5" />
  <path
    d="M248.193 16.138a16.902 16.902 0 0 1 7.901.609c1.194.412 5.563 1.92 7.721 6.026.82 1.56 1.018 3.442 1.416 7.207.247 2.352 1.168 4.03 1.191 6.901a24.258 24.258 0 0 1-1.074 6.86c-1.026 3.48-.329 5.446-.85 6.1-2.099 2.632-8.557.636-8.625 4.049-.041 2.107 3.591 11.171 3.54 13.64-.12 5.752-9.774-.184-15.593-8.714-.264-.387-4.211-2.653-3.832-6.382.203-1.993 1.813-11.347 1.64-12.55-.624-4.351-2.823-4.864-4.598-10.114a8.19 8.19 0 0 1 1.286-7.908 16.725 16.725 0 0 1 9.877-5.724Z"
    fill="#D19E8A" />
  <path
    d="M264.365 34.781c.488-.004.88-.5.874-1.107-.005-.608-.405-1.097-.893-1.093-.489.005-.88.5-.875 1.108.005.607.405 1.096.894 1.092ZM256.392 34.85c.489-.004.88-.5.875-1.107-.005-.608-.405-1.097-.893-1.093-.489.005-.881.5-.875 1.108.005.607.405 1.096.893 1.092Z"
    fill="#0A0709" />
  <path
    d="M260.134 31.75a.557.557 0 0 0 .303-.094 4.723 4.723 0 0 1 5.337-.067.558.558 0 0 0 .664-.897 5.923 5.923 0 0 0-6.618.033.562.562 0 0 0-.225.63.558.558 0 0 0 .539.394ZM251.87 31.82a.551.551 0 0 0 .302-.093 4.775 4.775 0 0 1 5.338-.069.562.562 0 0 0 .619.03.546.546 0 0 0 .254-.342.55.55 0 0 0-.062-.422.574.574 0 0 0-.146-.162 5.929 5.929 0 0 0-6.619.034.562.562 0 0 0-.225.629.557.557 0 0 0 .539.395Z"
    fill="#494752" />
  <path
    d="M259.376 31.983a4.17 4.17 0 0 0 .126 2.83 9.106 9.106 0 0 0 1.372 2.514l.466.522a.584.584 0 0 1 .189.405 1.431 1.431 0 0 1-.505.968 3.548 3.548 0 0 1-2.482.693 3.108 3.108 0 0 0 2.835-.271 1.909 1.909 0 0 0 .82-1.389 1.24 1.24 0 0 0-.33-.85l-.45-.527a12.882 12.882 0 0 1-1.416-2.29 5.34 5.34 0 0 1-.625-2.605ZM244.889 32.479a1.566 1.566 0 0 0-1.046.062c-.331.13-.63.328-.881.58a3.012 3.012 0 0 0-.587.852 2.576 2.576 0 0 0-.237.999c.246-.218.479-.451.697-.697.221-.22.409-.456.626-.656.205-.211.422-.412.649-.6.243-.203.504-.383.779-.54Z"
    fill="#B5806D" />
  <path
    d="M244.21 37.071a2.659 2.659 0 0 0 .49-2.134 2.858 2.858 0 0 0-.403-1.053 2.338 2.338 0 0 0-.789-.786c.203.643.37 1.297.498 1.96.108.666.176 1.338.204 2.013Z"
    fill="#B5806D" />
  <path
    d="M249.654 41.124s-1.519-6.313-1.266-8.126c.352-2.526.529-3.789.218-4.813-.498-1.64.301-1.86 1.316-3.636.953-1.666 3.959-.35 4.704-.632 2.091-.794 2.006-1.676 3.424-1.777 1.453-.102 2.518-.496 3.465.435.967.95 2.747 3.481 3.177 3.035a8.282 8.282 0 0 0 1.586-4.192 9.197 9.197 0 0 0-1.066-4.286c-.351-.763-1.658-3.604-4.334-4.342-1.541-.426-1.83.317-5.154.543-3.448.233-3.562-.537-5.364-.008-1.995.585-1.911 1.545-5.312 3.441a35.321 35.321 0 0 1-3.476 1.639c-4.275 1.854-4.838 1.568-5.817 2.53-2.11 2.074-1.732 5.606-1.641 6.46.257 2.402 1.202 3.117 3.277 6.952 3.285 6.073 2.658 8.642 3.851 9.487.585.415 3.633-1.792 3.61-2.866-.031-1.409-1.049-1.844-2.262-3.87-.846-1.416-2.063-3.448-1.388-5.306.408-1.123.876-.82 2.037-.723 1.575.133 2.368 2.319 3.012 3.923a8.598 8.598 0 0 1 .607 3.657c-.143 2.786 3.348 3.579 2.796 2.475Z"
    fill="#2E2C33" />
  <path d="M256.74 43.817s3.511 3.22 6.597-.056l-6.597.056Z" fill="#9D6D5C" />
  <path
    d="M257.523 60.184s6.169 17.84-17.42-8.662l-10.249 8.512A12.496 12.496 0 0 0 225.691 67l-1.507 11.58a172.513 172.513 0 0 0-.039 44.208l1.523 11.874 44.071 6.052a111.863 111.863 0 0 1-4.361-26.074c-.496-10.573.813-15.071.313-23.84a81.28 81.28 0 0 0-8.168-30.616Z"
    fill="#FFBA55" />
  <path
    d="M263.951 131.375c-.798-.457-1.611-.872-2.413-1.308l-2.353-1.384a39.554 39.554 0 0 1-4.383-3.199 24.323 24.323 0 0 1-3.743-3.887 16.655 16.655 0 0 1-1.446-2.284 10.303 10.303 0 0 1-1.009-2.524 11.672 11.672 0 0 0 2.012 5.121 19.667 19.667 0 0 0 3.729 4.11 27.966 27.966 0 0 0 4.567 3.128l2.473 1.227c.858.334 1.705.688 2.566 1Z"
    fill="#E6952A" />
  <path
    d="M251.632 49.481c2.905 2.005 8.471 1.87 8.471 1.87l.018.13c-2.162.282-4.21.494-4.248 2.408.102 1.071.33 2.126.678 3.144-3.801-2.142-4.919-7.552-4.919-7.552Z"
    fill="#B5806D" />
  <path d="m309.239 204.076 2.359 11.95 23.126 3.725-30.924 9.392-6.509-21.439 11.948-3.628Z" fill="#D19E8A" />
  <path
    d="m338.149 219.863-.022-.071a3.057 3.057 0 0 0-2.404-2.126l-24.102-4.188a1.017 1.017 0 0 0-1.133.656l-2.434 6.679a1.023 1.023 0 0 1-1.207.64l-5.669-1.421a1.021 1.021 0 0 0-1.224 1.286l2.82 9.288a1.018 1.018 0 0 0 1.272.68l33.423-10.15a1.019 1.019 0 0 0 .68-1.273Z"
    fill="#251D1B" />
  <path
    d="M224.826 125.969s-7.042 31.218 6.416 30.658h51.165l13.784 55.637s5.299 2.162 9.9 1.199c3.16-.662 5.883-3.677 7.776-5.219 0 0-10.07-79.764-29.119-82.186-23.762-3.021-59.922-.089-59.922-.089Z"
    fill="#808B49" />
  <path
    d="M282.407 156.627a34.073 34.073 0 0 0 3.151-4.714c.428-.817.867-1.634 1.251-2.496.406-.856.754-1.742 1.221-2.651a8.538 8.538 0 0 1-.145 3.006 10.17 10.17 0 0 1-1.056 2.843 9.828 9.828 0 0 1-1.858 2.409 6.66 6.66 0 0 1-2.564 1.603Z"
    fill="#5E7C24" />
  <path d="M241.478 71.408s1.996-4.758 28.119 32.765l-9.926 12.884s-14.411-11.861-20.939-22.1" fill="#FFBA55" />
  <path d="m324.662 108.837 23.04-10.99 1.182 25.183-22.154-7.171-2.068-7.022Z" fill="#8E6CD8" />
  <path
    d="M190.258 279.037c18.808 0 34.055-15.29 34.055-34.151 0-18.862-15.247-34.152-34.055-34.152s-34.055 15.29-34.055 34.152c0 18.861 15.247 34.151 34.055 34.151Z"
    fill="#1E1D22" />
  <path
    d="M190.258 262.61c9.761 0 17.674-7.936 17.674-17.724 0-9.789-7.913-17.724-17.674-17.724s-17.675 7.935-17.675 17.724c0 9.788 7.914 17.724 17.675 17.724Z"
    fill="#848384" />
  <path d="M189.586 249.326c3.333 0 3.338-5.18 0-5.18-3.333 0-3.339 5.18 0 5.18Z" fill="#fff" />
  <path
    d="M375.034 279.037c18.808 0 34.055-15.29 34.055-34.151 0-18.862-15.247-34.152-34.055-34.152s-34.055 15.29-34.055 34.152c0 18.861 15.247 34.151 34.055 34.151Z"
    fill="#1E1D22" />
  <path
    d="M375.034 262.61c9.761 0 17.674-7.936 17.674-17.724 0-9.789-7.913-17.724-17.674-17.724-9.762 0-17.675 7.935-17.675 17.724 0 9.788 7.913 17.724 17.675 17.724Z"
    fill="#848384" />
  <path d="M374.361 251.964c6.728 0 6.739-10.456 0-10.456-6.727 0-6.738 10.456 0 10.456Z" fill="#1E1D22" />
  <path
    d="M418.573 240.995s-31.038-15.563-86.216 5.188h-98.56s-32.762 20.75-87.94 5.187c0 0-6.897-12.104 10.346-38.042 0 0 10.346-29.396 17.243-34.583l95.079.049s-2.219 48.006 32.268 51.465c34.486 3.458 31.038-29.396 31.038-29.396l-4.565-72.712a135.35 135.35 0 0 0-.942-13.794c-.627-5.34-2.439-4.597-.283-3.516 3.448 1.729 37.354 38.507 44.251 90.383 0 0 39.659-5.188 48.281 39.771Z"
    fill="#8E6CD8" />
  <path
    d="M370.292 201.224a51.485 51.485 0 0 0-14.401 6.206 47.491 47.491 0 0 0-6.192 4.629 40.517 40.517 0 0 0-5.312 5.565 43.825 43.825 0 0 0-4.334 6.373c-.347.544-.63 1.125-.93 1.697-.289.578-.62 1.136-.875 1.731-.516 1.188-1.095 2.352-1.55 3.573a89.767 89.767 0 0 0-4.341 15.185 50.112 50.112 0 0 1 2.203-15.939 42.997 42.997 0 0 1 7.567-14.443 40.084 40.084 0 0 1 20.204-13.338 31.48 31.48 0 0 1 7.961-1.239ZM233.797 246.183a60.072 60.072 0 0 0 7.104-15.113c1.61-5.268 2.296-10.894 1.043-16.106a21.9 21.9 0 0 0-8.967-12.756c-.273-.194-.528-.412-.815-.589l-.861-.53c-.579-.348-1.131-.734-1.729-1.052-1.223-.597-2.378-1.293-3.673-1.784l-1.899-.799a19.42 19.42 0 0 0-1.874-.669 43.87 43.87 0 0 0-3.943-1.012 59.31 59.31 0 0 0-16.36-1.107 69.388 69.388 0 0 0-8.189 1.034c-2.71.511-5.382 1.216-8.037 1.989a97.104 97.104 0 0 0-29.394 15.639l3.144-2.82 3.291-2.656 3.407-2.518c1.175-.784 2.337-1.594 3.529-2.36a78.938 78.938 0 0 1 15.312-7.438 68.684 68.684 0 0 1 16.735-3.613 60.685 60.685 0 0 1 17.168 1.011 46 46 0 0 1 4.206 1.116c.686.221 1.412.468 2.086.763l1.977.852c1.332.519 2.595 1.279 3.887 1.93.638.347 1.24.769 1.861 1.15.629.375 1.23.795 1.799 1.255a23.848 23.848 0 0 1 9.544 14.478c.558 2.874.636 5.821.23 8.721a38.53 38.53 0 0 1-2.138 8.326 54.942 54.942 0 0 1-3.672 7.678 50.421 50.421 0 0 1-4.772 6.98ZM169.671 180.113h94.092c5.714 0 10.346-5.258 10.346-11.743s-4.632-11.743-10.346-11.743h-94.092c-5.714 0-10.346 5.258-10.346 11.743s4.632 11.743 10.346 11.743Z"
    fill="#6F56A5" />
  <path
    d="M222.417 208.244a33.335 33.335 0 0 1-5.257 4.977 52.935 52.935 0 0 1-6.031 4.052c-1.028.651-2.118 1.179-3.194 1.74-1.069.578-2.181 1.056-3.284 1.563-.55.256-1.108.493-1.665.734l-1.699.646c-1.139.413-2.26.883-3.414 1.249a83.256 83.256 0 0 1-14.121 3.259c-2.38.394-4.802.492-7.194.706a107.83 107.83 0 0 1-7.216-.008c2.353-.558 4.706-.94 7.04-1.408l3.485-.755c1.159-.251 2.327-.445 3.469-.763 1.148-.294 2.295-.576 3.447-.833 1.157-.236 2.277-.623 3.415-.928 1.128-.338 2.288-.568 3.401-.953l3.362-1.074c1.129-.334 2.221-.77 3.334-1.149l1.66-.594c.544-.223 1.085-.45 1.635-.659 2.209-.813 4.34-1.806 6.487-2.772 1.06-.51 2.133-1.004 3.172-1.559l1.578-.807 1.545-.867a61.146 61.146 0 0 0 6.045-3.797ZM226.45 219.65a33.292 33.292 0 0 1-5.257 4.977 52.935 52.935 0 0 1-6.031 4.052c-1.027.651-2.117 1.179-3.194 1.74-1.069.578-2.181 1.056-3.284 1.563-.55.256-1.108.493-1.665.734l-1.699.646c-1.138.413-2.26.883-3.414 1.249a83.234 83.234 0 0 1-14.121 3.259c-2.38.394-4.802.492-7.193.706a107.86 107.86 0 0 1-7.217-.008c2.353-.558 4.706-.94 7.04-1.408l3.485-.755c1.16-.251 2.327-.445 3.47-.763 1.147-.294 2.294-.576 3.446-.833 1.157-.236 2.277-.623 3.415-.928 1.128-.338 2.288-.568 3.401-.953l3.362-1.074c1.129-.334 2.221-.77 3.334-1.149l1.661-.594c.543-.223 1.084-.45 1.634-.659 2.209-.813 4.34-1.806 6.487-2.772 1.06-.51 2.133-1.004 3.172-1.559l1.578-.807 1.545-.867a61.03 61.03 0 0 0 6.045-3.797Z"
    fill="#6F56A5" />
  <path
    d="M348.763 123.035c2.16-.101 3.646-5.821 3.319-12.775-.326-6.955-2.341-12.51-4.501-12.409-2.159.102-3.645 5.822-3.319 12.776.327 6.954 2.342 12.51 4.501 12.408Z"
    fill="#FFBA55" />
  <path
    d="M347.581 97.852a1.917 1.917 0 0 0-1.224 1.062 6.862 6.862 0 0 0-.614 1.55 20.62 20.62 0 0 0-.606 3.325 49.344 49.344 0 0 0 .639 13.563c.215 1.108.521 2.196.914 3.253.191.525.444 1.024.756 1.486a1.921 1.921 0 0 0 1.317.944 1.966 1.966 0 0 1-1.62-.678 6.678 6.678 0 0 1-1.093-1.438 15.795 15.795 0 0 1-1.373-3.289 30.69 30.69 0 0 1-.656-14.014 15.836 15.836 0 0 1 1.059-3.403 6.638 6.638 0 0 1 .953-1.533 1.962 1.962 0 0 1 1.548-.828Z"
    fill="#E6952A" />
  <path
    d="M338.255 124.5c-1.076-.945-2.065-1.937-3.036-2.938l-2.88-3.001a64.87 64.87 0 0 0-2.901-2.915 16.513 16.513 0 0 0-1.559-1.297 4.08 4.08 0 0 0-1.838-.83 3.361 3.361 0 0 1 2.17.199 9.83 9.83 0 0 1 1.927 1.037 20.478 20.478 0 0 1 3.25 2.802 30.373 30.373 0 0 1 2.698 3.282 22.298 22.298 0 0 1 2.169 3.661Z"
    fill="#6F56A5" />
  <path d="M205.809 153.798h-51.776a2.82 2.82 0 0 1-2.817-2.817v-37.926h57.409v37.926a2.816 2.816 0 0 1-2.816 2.817Z"
    fill="#584432" />
  <path
    d="M186.504 124.79c-.185-.284-.456-.292-.765-.301a3.9 3.9 0 0 1-.106-.004 1.319 1.319 0 0 0-.089 0c-.125.002-.272.004-.345-.101-.086-.122-.078-.357-.071-.551.002-.062.004-.119.003-.167-.012-.452-.037-.931-.212-1.091-.131-.12-.525-.104-.887-.088a8.138 8.138 0 0 1-.334.009h-7.723c-.156 0-.319-.012-.479-.025-.312-.024-.613-.047-.827.025-.311.106-.332.663-.351 1.188l-.002.028c-.016.433-.124.767-.48.733-.414-.038-.826-.05-1.013.324-.221.443-.175.906-.094 1.737.012.118.025.244.037.379h13.857l.025-.291c.065-.747.121-1.398-.144-1.804Z"
    fill="#785A3F" />
  <path fill-rule="evenodd" clip-rule="evenodd"
    d="M173.845 127.709c.217 2.925.431 5.855.645 8.784v.002l.349 4.771h.442c.03.249.065.556.101.88.074.658.155 1.384.224 1.831h.049c.45-.165 3.564-1.494 3.565-6.787a.338.338 0 0 1 .001-.045h-.769a.17.17 0 0 1-.162-.125 3.8 3.8 0 0 1-.181-.569 2.451 2.451 0 0 0-1.027 1.114 2.193 2.193 0 0 1-.075-1.514c.155-.497.482-.925.925-1.209a6.26 6.26 0 0 1 1.627-4.184l.016-.014a.168.168 0 0 1 .109-.042.172.172 0 0 1 .124.056 6.13 6.13 0 0 1 1.613 4.209c.45.276.784.703.94 1.204.156.5.122 1.039-.094 1.517a2.436 2.436 0 0 0-1.027-1.114 2.324 2.324 0 0 1-.152.548c-.025.075-.076.123-.127.123h-.82l.003.027v.007a.088.088 0 0 1 0 .023c.011 5.444 3.322 6.68 3.601 6.775h.095c.025-.429.104-1.021.181-1.598.054-.397.106-.788.139-1.113h.447c.143-2.003.29-4 .438-5.997v-.002c.188-2.555.376-5.109.556-7.676h-11.727c-.034.007-.032.062-.029.118Zm5.839 2.893h-.001.002-.001Z"
    fill="#785A3F" />
  <path
    d="M215.576 103.911v5.157a3.813 3.813 0 0 1-3.599 3.989h-64.115a3.807 3.807 0 0 1-3.593-3.989v-5.157a3.804 3.804 0 0 1 3.593-3.981h64.115a3.81 3.81 0 0 1 3.599 3.981Z"
    fill="#785A3F" />
  <path
    d="M207.991 153.823h-34.148l-7.702-8.099a1.18 1.18 0 0 0-1.794.052 1.518 1.518 0 0 0 .047 1.99l5.759 6.057h-9.187v-6.392a1.274 1.274 0 0 0-.752-1.297 1.268 1.268 0 0 0-1.037 0 1.28 1.28 0 0 0-.751 1.297v6.392h-6.272a1.415 1.415 0 0 0 0 2.814h6.272v6.392a1.274 1.274 0 0 0 .322.986 1.29 1.29 0 0 0 1.466.311 1.276 1.276 0 0 0 .752-1.297v-6.392h11.863l6.397 6.727a1.191 1.191 0 0 0 .909.385 1.185 1.185 0 0 0 .886-.437 1.517 1.517 0 0 0-.047-1.99l-4.455-4.685h31.472a1.417 1.417 0 0 0 1.27-1.407 1.414 1.414 0 0 0-1.27-1.407Z"
    fill="#464646" />
  <path
    d="m269.303 104.903 39.307 5.241s16.054-5.958 19.324 2.491a5.363 5.363 0 0 1 .035 3.624c-.98 2.939-3.298 8.743-4.996 3.9l-1.746-4.979s-6.025 4.173-11.847 2.104c-2.103-.748-30.253 4.736-45.429 1.034l-4.28-1.261 9.632-12.154Z"
    fill="#D19E8A" />
  <path
    d="M241.478 71.408c.125-.214.406-.215.625-.193a3.7 3.7 0 0 1 .667.192c.416.2.816.433 1.194.697.386.251.754.529 1.102.83.349.3.725.573 1.051.894 1.362 1.234 2.651 2.544 3.902 3.886 2.497 2.69 4.797 5.545 7.104 8.391a259.29 259.29 0 0 1 6.667 8.732c2.201 2.928 4.264 5.95 6.399 8.924l.307.428-.328.425-4.974 6.432-5.003 6.411-.424.543-.513-.437a124.74 124.74 0 0 1-5.69-5.143 155.417 155.417 0 0 1-5.404-5.429c-1.753-1.857-3.452-3.767-5.037-5.771a56.308 56.308 0 0 1-4.391-6.263 70.844 70.844 0 0 0 4.772 5.941c1.699 1.886 3.477 3.698 5.268 5.494a155.067 155.067 0 0 0 5.556 5.201c1.899 1.678 3.81 3.359 5.76 4.957l-.937.106 4.923-6.472 4.951-6.451-.02.852c-2.103-2.985-4.175-5.993-6.31-8.954-2.104-2.984-4.273-5.919-6.432-8.862-2.19-2.916-4.399-5.825-6.759-8.6-1.164-1.402-2.366-2.773-3.643-4.07-.306-.339-.658-.625-.986-.94-.326-.316-.671-.611-1.034-.884a8.332 8.332 0 0 0-1.117-.772 3.654 3.654 0 0 0-.629-.235c-.209-.037-.477-.062-.617.14Z"
    fill="#E6952A" />
  <path
    d="M159.747 156.155a1 1 0 0 0 .968-1.002 1.002 1.002 0 0 0-.968-1.003 1.005 1.005 0 0 0-.687 1.7c.181.187.427.296.687.305ZM159.747 163.689a1 1 0 0 0 .968-1.002 1.002 1.002 0 0 0-.968-1.003 1.005 1.005 0 0 0-.687 1.7c.181.187.427.296.687.305ZM165.46 147.956a1 1 0 0 0 .968-1.002 1.004 1.004 0 0 0-.968-1.003 1.005 1.005 0 0 0-.687 1.699 1 1 0 0 0 .687.306ZM159.747 148.642a1.002 1.002 0 0 0 0-2.005 1.005 1.005 0 0 0-.687 1.699c.181.187.427.297.687.306ZM172.774 156.155a1.004 1.004 0 0 0 0-2.005 1.005 1.005 0 0 0-.687 1.7c.181.187.427.296.687.305ZM179.921 155.889a1.005 1.005 0 0 0 .687-1.699 1.005 1.005 0 0 0-.687-.306 1.005 1.005 0 0 0-.687 1.699c.181.187.427.297.687.306ZM179.921 163.225a1.004 1.004 0 0 0 0-2.005 1.005 1.005 0 0 0-.687 1.7c.181.187.427.296.687.305ZM152.814 156.155a1.004 1.004 0 0 0 0-2.005 1.005 1.005 0 0 0-.687 1.7c.181.187.427.296.687.305ZM206.904 156.155a1.004 1.004 0 0 0 0-2.005 1.005 1.005 0 0 0-.687 1.7c.181.187.427.296.687.305Z"
    fill="#616161" />
</svg>